<?xml version="1.0" encoding="utf-8"?>
<!-- Generator: Adobe Illustrator 27.0.1, SVG Export Plug-In . SVG Version: 6.00 Build 0)  -->
<svg version="1.1" id="Layer_1" xmlns="http://www.w3.org/2000/svg" xmlns:xlink="http://www.w3.org/1999/xlink" x="0px" y="0px"
	 viewBox="0 0 2903.8 937.7" style="enable-background:new 0 0 2903.8 937.7;" xml:space="preserve">
<style type="text/css">
	.st0{fill:#EAF0F1;}
	.st1{fill:#15323A;}
	.st2{fill:#AAC2C9;}
	.st3{fill:#1A3E47;}
	.st4{fill:#CAD9DD;}
	.st5{fill:#6B95A0;}
	.st6{fill:#275D6B;}
	.st7{fill:#204D59;}
	.st8{fill:#2B6777;}
	.st9{fill:#F4F7F8;}
	.st10{fill:#FFFFFF;}
</style>
<g>
	<g>
		<path class="st1" d="M1023.9,361.7c0.1-0.6,0.1-1.2,0-1.7c-0.1-0.3-0.1-0.6,0-0.9l-64.2-241.4v-1.1c-0.2-1-0.6-2-1.1-3
			c0-0.6,0-1.1-0.9-1.6l-1.6-2.5l-1.5-1.5l-0.9-1.1l-1-0.7l-1.7-1.4l-2.5-1.5h-1L729,3h-0.7h-0.6h-1.6H724l-2.3-2.2h-2.1h-2.5h-2
			h-2.5h-1.5l-197,78l-193-78c-0.4-0.1-0.7-0.1-1.1,0L317.6,0h-2h-2.5H311h-2.5h-2.1h-1.1h-1.2l-1.2,0.7L81.3,103l-1.1,0.6l-2.3,1.4
			l-1.7,1.4l-1,0.7l-0.9,1l-1.4,1.6l-1.6,2.2l-1,1.7c-0.4,0.9-0.7,1.8-1,2.7v1.1L0.1,357c-0.1,0.3-0.1,0.6,0,0.9
			c-0.1,0.7-0.1,1.4,0,2.1c-0.1,0.8-0.1,1.6,0,2.3c0,0,0,0.7,0,1c0,0.2,0,0.7,0,1c-0.1,0.8-0.1,1.6,0,2.5v2.1c0,0,0,1.4,0,2.1
			c0.3,0.6,0.6,1.3,0.9,2v0.9l142.4,274.6l0.7,1.1c0.4,0.8,0.9,1.5,1.5,2.2l1.4,1.6l1,1.1l0.9,0.7h0.6L499,933.3
			c1.8,1.3,3.8,2.4,5.9,3.2h1.1c4.3,1.5,9,1.5,13.3,0h1.1c2.1-0.8,4.1-1.8,5.9-3.1l353.3-273.9c2.7-2.1,4.9-4.8,6.4-7.9L1023,375.1
			l1-2.3c0.1-0.7,0.1-1.5,0-2.2v-1.8c0.1-0.9,0.1-1.7,0-2.6c0,0,0-0.6,0-1c0.1-0.3,0.1-0.6,0-0.9
			C1024,363.4,1024,362.5,1023.9,361.7z M732.1,54.6l167.1,76.6L790.3,247.9l-113-51.1L732.1,54.6z M536,120.8l143.5-56.9l-49,127.6
			L536,231.6V120.8z M490.5,120.4v111.3l-99.4-41.9L349.3,62.3L490.5,120.4z M298.4,53.2l46.4,142L238.9,247l-110-116.4L298.4,53.2z
			 M101.3,168.3l106.2,112.2l-22.7,59.1H52.3L101.3,168.3z M59.3,385.8l126-0.7l57,138.7L170,599.2L59.3,385.8z M490.5,867.3
			L198.2,635.7l72.9-76.2l219.3,172.4V867.3z M513.1,692.2L287.8,514.6l-62.7-152.7l26.8-70.1l121.4-60l130.9,55.2
			c1.4,0.6,2.9,1,4.4,1.4c0.9,0.1,1.9,0.1,2.8,0h1.6c1.5,0.1,3,0.1,4.4,0c1.5-0.3,3-0.8,4.4-1.4l125.7-53.4l129.6,58.2l22.3,71.3
			l-59.2,149.6L513.1,692.2z M536.9,868.9L536,731.9l220.8-174l75.6,81.2L536.9,868.9z M859.8,602.2L785.9,522l53.7-135.5l126.5,0.6
			L859.8,602.2z M840.8,341.5L822,281.1l104.4-111.9l46.4,172.4L840.8,341.5z"/>
		<polygon class="st1" points="611.7,482 616.3,450 584.3,445.5 540.8,478.1 536.3,510.1 568.2,514.6 		"/>
		<polygon class="st1" points="644.9,487 644.9,487 544.7,562.3 540.2,594.2 572.1,598.8 672.4,523.5 676.9,491.5 644.9,487 		"/>
	</g>
	<g>
		<path class="st1" d="M1339.1,540.6c-32.1,0-63-5.6-92.5-16.7c-29.5-11.1-55.8-28-78.9-50.5c-23.1-22.5-41.3-50.6-54.8-84.3
			c-13.5-33.7-20.2-73.3-20.2-118.9c0-44.6,6.7-83.7,20.2-117.4c13.5-33.7,31.9-61.8,55.2-84.3c23.3-22.5,49.7-39.5,79.3-50.9
			c29.5-11.4,60.1-17.1,91.7-17.1c32.1,0,62.8,5.6,92.1,16.7c29.3,11.1,55.6,27.9,78.9,50.1c23.3,22.3,41.7,50.4,55.2,84.3
			c13.5,33.9,20.2,73.5,20.2,118.5c0,45.1-6.7,84.5-20.2,118.2c-13.5,33.7-31.7,61.8-54.8,84.3c-23.1,22.5-49.4,39.5-78.9,50.9
			S1371.2,540.6,1339.1,540.6z M1339.1,495.5c26.4,0,47.5-9.8,63.4-29.5c15.8-19.7,27.3-46.5,34.6-80.5
			c7.2-33.9,10.9-72.4,10.9-115.4c0-43-3.6-81.4-10.9-115c-7.3-33.7-18.8-60.4-34.6-80.1c-15.8-19.7-36.9-29.5-63.4-29.5
			c-25.9,0-46.9,9.9-63,29.5c-16.1,19.7-27.7,46.4-35,80.1c-7.3,33.7-10.9,72-10.9,115c0,43,3.6,81.5,10.9,115.4
			c7.2,33.9,18.9,60.8,35,80.5C1292.2,485.6,1313.2,495.5,1339.1,495.5z"/>
		<path class="st1" d="M1633.7,525.8v-36.5l42-9.3c0.5-18.7,0.8-38.9,0.8-60.6c0-21.8,0-40.7,0-56.7v-45.1c0-21.2-0.1-37.7-0.4-49.4
			c-0.3-11.7-0.9-25.3-1.9-40.8l-47.4-7V190l153.1-52.1l14,8.5l4.7,56c20.2-23.8,40.3-40.5,60.2-50.1c19.9-9.6,41.3-14.4,64.1-14.4
			c33.7,0,60.8,11.1,81.2,33.4c20.5,22.3,30.7,55.7,30.7,100.3v90.9c0,17.1,0,36.4,0,57.9c0,21.5,0.3,41.9,0.8,61l38.9,7.8v36.5
			h-205.2v-36.5l40.4-8.6c0.5-19.2,0.8-39.5,0.8-61c0-21.5,0-40.5,0-57.1v-81.6c0-24.9-3.4-42.4-10.1-52.5
			c-6.7-10.1-17.6-15.2-32.6-15.2c-20.2,0-42.5,9.3-66.9,28v121.3c0,16.1,0,35.1,0,57.1c0,22,0.3,42.6,0.8,61.8l36.5,7.8v36.5
			H1633.7z"/>
		<path class="st1" d="M2333.3,183.8v-33.4h146.1v33.4l-44.3,7.8l-141.5,366.1c-19.2,49.7-39.1,87.6-59.9,113.5
			c-20.7,25.9-49.2,38.9-85.5,38.9c-20.7,0-39-5.7-54.8-17.1c-15.8-11.4-24.2-25.1-25.3-41.2c3.1-17.1,10.7-29.8,22.9-38.1
			c12.2-8.3,25.8-12.4,40.8-12.4c10.4,0,21.5,2.2,33.4,6.6c11.9,4.4,23.1,14.4,33.4,29.9l5.4,7.8c22.8-24.4,40.4-54.2,52.9-89.4
			v-0.8L2102.4,190l-36.5-6.2v-33.4h220.8v33.4l-52.1,9.3l76.2,209.9l73.8-209.9L2333.3,183.8z"/>
		<path class="st1" d="M2753.8,184.6v-34.2h136v34.2l-44.3,8.5l-90.2,122l104.2,166.3l44.3,7.8v36.5h-222.3v-36.5l35.8-5.4
			l-57.5-93.3l-60.6,91.7l38.1,7v36.5h-146.9v-36.5l53.6-8.6l93.3-126.7l-101.1-163.2l-43.5-6.2v-34.2h218.4v34.2l-34.2,5.4
			l56.7,90.2l57.5-87.1L2753.8,184.6z"/>
	</g>
	<g>
		<path class="st1" d="M1165.1,899.5c0.4-1.1,0.8-2.2,1.3-3.2c0.4-1.1,0.9-2.1,1.5-3l57-100.8c0.5-0.9,1.1-1.4,1.6-1.6
			c0.5-0.2,1.3-0.3,2.3-0.3h7.3v145.1h-9.2V811.9c0-1.8,0.1-3.7,0.3-5.6L1170,907.7c-1,1.8-2.3,2.7-4.1,2.7h-1.6
			c-1.7,0-3.1-0.9-4.1-2.7l-58.7-101.5c0.2,2,0.3,3.9,0.3,5.7v123.7h-9.1V790.5h7.2c1,0,1.7,0.1,2.3,0.3c0.6,0.2,1.1,0.8,1.7,1.6
			l58.6,100.9C1163.5,895.2,1164.3,897.3,1165.1,899.5z"/>
		<path class="st1" d="M1366.1,790.5v8.7h-76.4v58.7h63.6v8.5h-63.6v60.5h76.4v8.7h-87V790.5H1366.1z"/>
		<path class="st1" d="M1522.5,863c0,11.2-1.7,21.3-5,30.3c-3.4,9-8.1,16.6-14.2,22.9c-6.1,6.3-13.4,11.1-21.8,14.5
			c-8.5,3.4-17.9,5-28.2,5h-52.9V790.5h52.9c10.3,0,19.7,1.7,28.2,5c8.5,3.4,15.8,8.2,21.8,14.5c6.1,6.3,10.8,13.9,14.2,22.9
			C1520.8,841.8,1522.5,851.8,1522.5,863z M1511.6,863c0-10.1-1.4-19.1-4.2-27.1c-2.8-7.9-6.8-14.6-11.8-20.1
			c-5.1-5.5-11.2-9.6-18.4-12.5c-7.2-2.9-15.1-4.3-23.9-4.3h-42.4v128.1h42.4c8.8,0,16.7-1.4,23.9-4.3c7.2-2.9,13.3-7,18.4-12.5
			c5.1-5.5,9-12.2,11.8-20.1C1510.2,882.2,1511.6,873.2,1511.6,863z"/>
		<path class="st1" d="M1570.6,935.6H1560V790.5h10.6V935.6z"/>
		<path class="st1" d="M1723,911.2c0.7,0,1.3,0.2,1.7,0.7l4.1,4.4c-3,3.2-6.3,6.1-9.8,8.7c-3.6,2.6-7.4,4.8-11.6,6.6
			c-4.2,1.8-8.8,3.2-13.8,4.2c-5,1-10.5,1.5-16.6,1.5c-10.1,0-19.3-1.8-27.6-5.3c-8.4-3.5-15.6-8.5-21.5-15
			c-6-6.5-10.7-14.3-14-23.4c-3.4-9.2-5-19.3-5-30.6c0-11,1.7-21.1,5.2-30.2c3.5-9.1,8.3-16.9,14.6-23.4
			c6.3-6.5,13.7-11.6,22.5-15.2c8.7-3.6,18.3-5.4,28.9-5.4c5.3,0,10.1,0.4,14.5,1.2c4.4,0.8,8.5,1.9,12.3,3.4
			c3.8,1.5,7.4,3.3,10.7,5.5c3.3,2.2,6.6,4.7,9.8,7.6l-3.2,4.6c-0.5,0.8-1.4,1.2-2.6,1.2c-0.6,0-1.4-0.4-2.4-1.1
			c-1-0.7-2.2-1.6-3.6-2.7c-1.5-1.1-3.2-2.2-5.3-3.5c-2.1-1.3-4.6-2.4-7.4-3.5c-2.9-1.1-6.2-1.9-9.9-2.7c-3.8-0.7-8-1.1-12.8-1.1
			c-8.8,0-16.9,1.5-24.3,4.6c-7.4,3-13.7,7.4-19.1,13c-5.3,5.6-9.5,12.5-12.5,20.5c-3,8-4.5,17-4.5,27c0,10.3,1.5,19.4,4.4,27.5
			c2.9,8.1,7,14.9,12.2,20.5c5.2,5.6,11.3,9.8,18.4,12.8c7.1,3,14.8,4.5,23,4.5c5.2,0,9.8-0.3,13.9-1c4.1-0.7,7.8-1.7,11.2-3.1
			c3.4-1.4,6.6-3,9.5-5c2.9-2,5.8-4.3,8.7-7c0.3-0.3,0.7-0.5,1-0.7C1722.2,911.3,1722.6,911.2,1723,911.2z"/>
		<path class="st1" d="M1871.1,935.6h-8.1c-1,0-1.7-0.3-2.4-0.8c-0.6-0.5-1.1-1.2-1.4-2l-17.1-42.2h-71.3l-17,42.2
			c-0.3,0.8-0.8,1.4-1.4,1.9c-0.7,0.5-1.5,0.8-2.5,0.8h-8l59.4-145.1h10.5L1871.1,935.6z M1774,882.9h65l-29.6-73.3
			c-0.5-1.2-1-2.5-1.4-3.9c-0.5-1.5-1-3-1.4-4.7c-0.5,1.6-1,3.2-1.4,4.7c-0.5,1.5-1,2.8-1.4,4.1L1774,882.9z"/>
		<path class="st1" d="M1904.5,926.7h68.8v8.9h-79.3V790.5h10.5V926.7z"/>
		<path class="st1" d="M2108.8,808.1c-0.6,1.2-1.5,1.7-2.7,1.7c-0.9,0-2-0.6-3.4-1.9c-1.4-1.3-3.3-2.7-5.7-4.2c-2.4-1.5-5.4-3-9-4.3
			c-3.6-1.3-8-1.9-13.3-1.9c-5.3,0-9.9,0.8-13.9,2.3c-4,1.5-7.4,3.6-10.1,6.2c-2.7,2.6-4.8,5.6-6.2,9c-1.4,3.4-2.1,7-2.1,10.8
			c0,4.9,1,9,3.1,12.2c2.1,3.2,4.8,5.9,8.3,8.2c3.4,2.3,7.3,4.2,11.7,5.7c4.3,1.5,8.8,3.1,13.4,4.6c4.6,1.5,9.1,3.2,13.4,5
			c4.3,1.8,8.2,4.1,11.7,6.8c3.4,2.7,6.2,6.1,8.3,10.1c2.1,4,3.1,9,3.1,14.9c0,6.1-1,11.8-3.1,17.2c-2.1,5.4-5.1,10-9.1,14
			c-4,4-8.8,7.1-14.6,9.4c-5.7,2.3-12.3,3.4-19.7,3.4c-9.6,0-17.8-1.7-24.7-5.1c-6.9-3.4-13-8-18.2-13.9l2.9-4.5
			c0.8-1,1.8-1.5,2.9-1.5c0.6,0,1.4,0.4,2.4,1.2c1,0.8,2.1,1.8,3.5,3c1.4,1.2,3,2.5,4.9,3.9c1.9,1.4,4.1,2.7,6.7,3.9
			c2.5,1.2,5.4,2.2,8.7,3c3.3,0.8,7,1.2,11.2,1.2c5.8,0,10.9-0.9,15.4-2.6c4.5-1.7,8.3-4.1,11.5-7.1c3.1-3,5.5-6.6,7.1-10.7
			c1.6-4.1,2.5-8.6,2.5-13.3c0-5.1-1-9.3-3.1-12.7c-2.1-3.3-4.8-6.1-8.3-8.3c-3.4-2.2-7.3-4.1-11.7-5.6c-4.3-1.5-8.8-3-13.4-4.4
			c-4.6-1.4-9.1-3-13.4-4.8c-4.3-1.8-8.2-4.1-11.7-6.8c-3.4-2.8-6.2-6.2-8.3-10.4c-2.1-4.1-3.1-9.3-3.1-15.5c0-4.9,0.9-9.5,2.8-14.1
			c1.8-4.5,4.6-8.5,8.1-11.9c3.6-3.5,8-6.2,13.2-8.3c5.2-2.1,11.2-3.1,17.9-3.1c7.5,0,14.3,1.2,20.3,3.6c6,2.4,11.4,6.1,16.4,11
			L2108.8,808.1z"/>
		<path class="st1" d="M2199.4,928.1c7,0,13.2-1.2,18.7-3.6c5.5-2.4,10.2-5.8,14-10.1c3.8-4.3,6.8-9.4,8.8-15.2c2-5.8,3-12.2,3-18.9
			v-89.7h10.5v89.7c0,8-1.3,15.5-3.8,22.4c-2.5,6.9-6.2,13-10.9,18.2c-4.8,5.2-10.5,9.2-17.3,12.2c-6.8,2.9-14.4,4.4-22.9,4.4
			c-8.5,0-16.1-1.5-22.9-4.4c-6.8-2.9-12.6-7-17.3-12.2c-4.8-5.2-8.4-11.2-10.9-18.2c-2.5-6.9-3.8-14.4-3.8-22.4v-89.7h10.6v89.6
			c0,6.8,1,13.1,3,18.9c2,5.8,4.9,10.9,8.7,15.2c3.8,4.3,8.4,7.7,13.9,10.2C2186.2,926.9,2192.4,928.1,2199.4,928.1z"/>
		<path class="st1" d="M2309.7,877.1v58.5h-10.5V790.5h37.4c17,0,29.9,3.7,38.5,11.2c8.6,7.5,13,18.1,13,31.9
			c0,6.4-1.2,12.2-3.5,17.5c-2.4,5.3-5.8,9.9-10.2,13.8c-4.4,3.9-9.8,6.9-16.2,9c-6.4,2.2-13.5,3.2-21.5,3.2H2309.7z M2309.7,868.7
			h27c6.4,0,12.2-0.9,17.2-2.7c5.1-1.8,9.3-4.2,12.9-7.4c3.5-3.1,6.2-6.9,8.1-11.1c1.9-4.3,2.8-8.9,2.8-14
			c0-11.1-3.4-19.7-10.3-25.7c-6.9-6-17.1-9-30.7-9h-27V868.7z"/>
		<path class="st1" d="M2431.5,877.1v58.5H2421V790.5h37.4c17,0,29.9,3.7,38.5,11.2c8.6,7.5,13,18.1,13,31.9
			c0,6.4-1.2,12.2-3.5,17.5c-2.4,5.3-5.8,9.9-10.2,13.8c-4.4,3.9-9.8,6.9-16.2,9c-6.4,2.2-13.5,3.2-21.5,3.2H2431.5z M2431.5,868.7
			h27c6.4,0,12.2-0.9,17.2-2.7c5.1-1.8,9.3-4.2,12.9-7.4c3.5-3.1,6.2-6.9,8.1-11.1c1.9-4.3,2.8-8.9,2.8-14
			c0-11.1-3.4-19.7-10.3-25.7c-6.9-6-17.1-9-30.7-9h-27V868.7z"/>
		<path class="st1" d="M2550.1,926.7h68.8v8.9h-79.3V790.5h10.5V926.7z"/>
		<path class="st1" d="M2658.9,935.6h-10.6V790.5h10.6V935.6z"/>
		<path class="st1" d="M2792.9,790.5v8.7h-76.4v58.7h63.6v8.5h-63.6v60.5h76.4v8.7h-87V790.5H2792.9z"/>
		<path class="st1" d="M2897.4,808.1c-0.6,1.2-1.5,1.7-2.7,1.7c-0.9,0-2-0.6-3.4-1.9c-1.4-1.3-3.3-2.7-5.7-4.2c-2.4-1.5-5.4-3-9-4.3
			c-3.6-1.3-8-1.9-13.3-1.9c-5.3,0-9.9,0.8-13.9,2.3c-4,1.5-7.4,3.6-10.1,6.2c-2.7,2.6-4.8,5.6-6.2,9c-1.4,3.4-2.1,7-2.1,10.8
			c0,4.9,1,9,3.1,12.2c2.1,3.2,4.8,5.9,8.3,8.2c3.4,2.3,7.3,4.2,11.7,5.7c4.3,1.5,8.8,3.1,13.4,4.6c4.6,1.5,9.1,3.2,13.4,5
			c4.3,1.8,8.2,4.1,11.7,6.8c3.4,2.7,6.2,6.1,8.3,10.1c2.1,4,3.1,9,3.1,14.9c0,6.1-1,11.8-3.1,17.2c-2.1,5.4-5.1,10-9.1,14
			c-4,4-8.8,7.1-14.6,9.4c-5.7,2.3-12.3,3.4-19.7,3.4c-9.6,0-17.8-1.7-24.7-5.1c-6.9-3.4-13-8-18.2-13.9l2.9-4.5
			c0.8-1,1.8-1.5,2.9-1.5c0.6,0,1.4,0.4,2.4,1.2c1,0.8,2.1,1.8,3.5,3c1.4,1.2,3,2.5,4.9,3.9c1.9,1.4,4.1,2.7,6.7,3.9
			c2.5,1.2,5.4,2.2,8.7,3c3.3,0.8,7,1.2,11.2,1.2c5.8,0,10.9-0.9,15.4-2.6c4.5-1.7,8.3-4.1,11.5-7.1c3.1-3,5.5-6.6,7.1-10.7
			c1.6-4.1,2.5-8.6,2.5-13.3c0-5.1-1-9.3-3.1-12.7c-2.1-3.3-4.8-6.1-8.3-8.3c-3.4-2.2-7.3-4.1-11.7-5.6c-4.3-1.5-8.8-3-13.4-4.4
			c-4.6-1.4-9.1-3-13.4-4.8c-4.3-1.8-8.2-4.1-11.7-6.8c-3.4-2.8-6.2-6.2-8.3-10.4c-2.1-4.1-3.1-9.3-3.1-15.5c0-4.9,0.9-9.5,2.8-14.1
			c1.8-4.5,4.6-8.5,8.1-11.9c3.6-3.5,8-6.2,13.2-8.3c5.2-2.1,11.2-3.1,17.9-3.1c7.5,0,14.3,1.2,20.3,3.6c6,2.4,11.4,6.1,16.4,11
			L2897.4,808.1z"/>
	</g>
</g>
</svg>
